<svg width="38" height="38" viewBox="0 0 38 38" fill="none" xmlns="http://www.w3.org/2000/svg">
<path d="M22.0533 26.6133C22.3975 26.7713 22.7853 26.8075 23.1527 26.7157C23.5202 26.6239 23.8455 26.4096 24.0749 26.1083L24.6666 25.3333C24.9771 24.9193 25.3797 24.5833 25.8425 24.3518C26.3054 24.1204 26.8158 23.9999 27.3333 23.9999H32.3333C33.2173 23.9999 34.0652 24.3511 34.6903 24.9762C35.3154 25.6014 35.6666 26.4492 35.6666 27.3333V32.3333C35.6666 33.2173 35.3154 34.0652 34.6903 34.6903C34.0652 35.3154 33.2173 35.6666 32.3333 35.6666C24.3768 35.6666 16.7461 32.5059 11.1201 26.8798C5.49396 21.2537 2.33325 13.6231 2.33325 5.66659C2.33325 4.78253 2.68444 3.93468 3.30956 3.30956C3.93468 2.68444 4.78253 2.33325 5.66659 2.33325H10.6666C11.5506 2.33325 12.3985 2.68444 13.0236 3.30956C13.6487 3.93468 13.9999 4.78253 13.9999 5.66659V10.6666C13.9999 11.1841 13.8794 11.6944 13.648 12.1573C13.4166 12.6202 13.0806 13.0228 12.6666 13.3333L11.8866 13.9183C11.5806 14.1519 11.365 14.4842 11.2762 14.8588C11.1875 15.2334 11.2312 15.6272 11.3999 15.9733C13.6777 20.5997 17.424 24.3413 22.0533 26.6133Z" stroke="white" stroke-width="3" stroke-linecap="round" stroke-linejoin="round"/>
</svg>
