<svg width="52" height="52" viewBox="0 0 52 52" fill="none" xmlns="http://www.w3.org/2000/svg">
<path d="M24.9791 4.16675H7.54163C6.51391 4.16675 5.52829 4.61978 4.80159 5.42619C4.07488 6.2326 3.66663 7.32632 3.66663 8.46675V42.8667C3.66663 44.0072 4.07488 45.1009 4.80159 45.9073C5.52829 46.7137 6.51391 47.1667 7.54163 47.1667H30.7916C31.8193 47.1667 32.805 46.7137 33.5317 45.9073C34.2584 45.1009 34.6666 44.0072 34.6666 42.8667V14.9167L24.9791 4.16675Z" stroke="#F79F24" stroke-width="4" stroke-linecap="round" stroke-linejoin="round"/>
<path d="M22.6666 4.16675V12.8334C22.6666 13.9827 23.0881 15.0849 23.8382 15.8975C24.5883 16.7102 25.6058 17.1667 26.6666 17.1667H34.6666" stroke="#F79F24" stroke-width="4" stroke-linecap="round" stroke-linejoin="round"/>
<path d="M14.6666 19.1667H11.6666" stroke="#F79F24" stroke-width="4" stroke-linecap="round" stroke-linejoin="round"/>
<path d="M26.6666 28.1667H11.6666" stroke="#F79F24" stroke-width="4" stroke-linecap="round" stroke-linejoin="round"/>
<path d="M26.6666 37.1667H11.6666" stroke="#F79F24" stroke-width="4" stroke-linecap="round" stroke-linejoin="round"/>
</svg>
