<svg width="36" height="44" viewBox="0 0 36 44" fill="none" xmlns="http://www.w3.org/2000/svg">
<path d="M34.0004 18.2305C34.0004 27.9998 22.9223 38.1742 19.2022 41.3165C18.8557 41.5714 18.4338 41.7093 18.0002 41.7093C17.5666 41.7093 17.1447 41.5714 16.7982 41.3165C13.0781 38.1742 2 27.9998 2 18.2305C2 14.0791 3.68573 10.0977 6.68635 7.16225C9.68697 4.22677 13.7567 2.57764 18.0002 2.57764C22.2437 2.57764 26.3134 4.22677 29.3141 7.16225C32.3147 10.0977 34.0004 14.0791 34.0004 18.2305Z" stroke="white" stroke-width="4" stroke-linecap="round" stroke-linejoin="round"/>
<path d="M18.0001 24.1005C21.3138 24.1005 24.0002 21.4725 24.0002 18.2307C24.0002 14.9888 21.3138 12.3608 18.0001 12.3608C14.6863 12.3608 12 14.9888 12 18.2307C12 21.4725 14.6863 24.1005 18.0001 24.1005Z" stroke="white" stroke-width="4" stroke-linecap="round" stroke-linejoin="round"/>
</svg>
