<svg width="52" height="52" viewBox="0 0 52 52" fill="none" xmlns="http://www.w3.org/2000/svg">
<path d="M43.3333 28.1666C43.3333 38.9999 35.75 44.4166 26.7366 47.5583C26.2646 47.7182 25.752 47.7105 25.285 47.5366C16.25 44.4166 8.66663 38.9999 8.66663 28.1666V12.9999C8.66663 12.4253 8.8949 11.8742 9.30123 11.4679C9.70756 11.0615 10.2587 10.8332 10.8333 10.8332C15.1666 10.8332 20.5833 8.23325 24.3533 4.93992C24.8123 4.54775 25.3962 4.33228 26 4.33228C26.6037 4.33228 27.1876 4.54775 27.6466 4.93992C31.4383 8.25492 36.8333 10.8332 41.1666 10.8332C41.7413 10.8332 42.2924 11.0615 42.6987 11.4679C43.105 11.8742 43.3333 12.4253 43.3333 12.9999V28.1666Z" stroke="#F89B24" stroke-width="4" stroke-linecap="round" stroke-linejoin="round"/>
<path d="M19.5 26.0001L23.8333 30.3334L32.5 21.6667" stroke="#F89B24" stroke-width="4" stroke-linecap="round" stroke-linejoin="round"/>
</svg>
