<svg width="102" height="49" viewBox="0 0 102 49" fill="none" xmlns="http://www.w3.org/2000/svg">
<path d="M0 36.6304H6.78102V6.77093H15.5808C15.5808 6.77093 25.8041 7.93833 26.037 18.6265C26.2441 29.3407 16.0726 30.7675 16.0726 30.7675L16.1243 18.4968H9.34331V36.6045H15.3996C15.3996 36.6045 32.6369 36.3191 32.6369 18.2374C32.6369 0.155656 17.1078 0.882037 17.1078 0.882037H0V36.6304Z" fill="black"/>
<path d="M83.1581 0.155653C74.4101 0.155653 67.0338 6.14831 64.9374 14.2682H76.1959C78.9135 11.1292 80.9323 10.7141 83.4687 10.7141C88.2827 10.7141 91.6215 14.7093 91.6215 19.0416C91.6215 23.374 88.1274 26.8762 83.8052 26.8762C79.4829 26.8762 80.0264 26.1498 78.6547 24.9305V36.7861C80.1041 37.1493 81.9158 37.3309 83.4687 37.3309C93.8732 37.3309 102 29.4444 102 19.0157C102 8.58688 93.5626 0.155653 83.1581 0.155653Z" fill="#020181"/>
<path d="M12.915 15.721C14.6446 15.721 16.0467 14.3156 16.0467 12.582C16.0467 10.8484 14.6446 9.44298 12.915 9.44298C11.1854 9.44298 9.78333 10.8484 9.78333 12.582C9.78333 14.3156 11.1854 15.721 12.915 15.721Z" fill="black"/>
<path d="M75.8076 16.2139V35.1777L68.6643 40.3402L68.716 31.2345C65.2738 35.2296 60.1751 37.746 54.507 37.746C44.1025 37.746 35.665 29.2888 35.665 18.86C35.665 8.43123 44.0766 0 54.4811 0C61 0 63.2032 1.60842 66.4643 4.30641L61.1068 13.8013C59.6833 12.0891 57.5351 11.0255 55.1281 11.0255C50.8059 11.0255 47.3118 14.5277 47.3118 18.86C47.3118 23.1924 50.8059 26.6946 55.1281 26.6946C59.4504 26.6946 60.3562 25.2418 61.728 23.0627H53.6011L57.3798 16.188H75.8076V16.2139Z" fill="#F79F24"/>
<path d="M36.0533 44.3093H34.9145V47.9413H33.9569V44.3093H32.8181V43.7386H36.0533V44.3093Z" fill="black"/>
<path d="M37.5027 45.0357C37.658 44.8801 37.8909 44.8022 38.2274 44.8022H38.4085V45.373H38.1497C37.865 45.373 37.6838 45.4508 37.5803 45.6324C37.5285 45.6843 37.5285 45.7362 37.5285 45.814V47.9413H36.5709V44.8282H37.5285V45.0617L37.5027 45.0357Z" fill="black"/>
<path d="M40.2461 45.373C39.9614 45.373 39.832 45.4767 39.832 45.6583V45.7621H38.8744V45.5546C38.8744 45.3211 38.9779 45.1395 39.2109 45.0098C39.4438 44.8801 39.7026 44.8022 40.0391 44.8022H40.712C41.0226 44.8022 41.3073 44.8801 41.5402 45.0098C41.7732 45.1395 41.8767 45.3211 41.8767 45.5546V47.9413H40.9191V47.8634C40.7638 47.9153 40.6085 47.9413 40.4273 47.9413H39.9873C39.4697 47.9413 39.1073 47.7856 38.9003 47.5002C38.8226 47.3965 38.7968 47.2927 38.7968 47.1889V46.696C38.7968 46.4885 38.9003 46.3069 39.1332 46.1512C39.3662 46.0215 39.6509 45.9437 39.9614 45.9437H40.4273C40.6085 45.9437 40.7638 45.9696 40.8673 46.0475V45.6324C40.8673 45.4508 40.7379 45.347 40.4791 45.347H40.1944L40.2461 45.373ZM40.5308 47.3705C40.7897 47.3705 40.9191 47.2668 40.9191 47.0852V46.7739C40.9191 46.5923 40.7638 46.5144 40.5308 46.5144H40.1944C39.9097 46.5144 39.7803 46.6182 39.7803 46.7998V47.1111C39.7803 47.2927 39.9097 47.3965 40.1944 47.3965H40.5308V47.3705Z" fill="black"/>
<path d="M42.6014 45.5546C42.6014 45.347 42.705 45.1654 42.9379 45.0098C43.1708 44.8801 43.4555 44.8022 43.7661 44.8022H44.3096C44.4649 44.8022 44.5685 44.8022 44.6202 44.8541L44.7496 44.906V43.8424H45.7073V47.9153H44.7496V47.8375C44.5943 47.8894 44.4391 47.9153 44.2579 47.9153H43.7402C43.2226 47.9153 42.8603 47.7597 42.6532 47.4743C42.5756 47.3705 42.5497 47.2668 42.5497 47.163V45.5286L42.6014 45.5546ZM44.3614 47.3705C44.6461 47.3705 44.7755 47.2668 44.7755 47.0852V45.6324C44.7755 45.4508 44.6202 45.373 44.3614 45.373H43.9732C43.6885 45.373 43.5591 45.4767 43.5591 45.6583V47.1111C43.5591 47.2927 43.6885 47.3965 43.9732 47.3965H44.3614V47.3705Z" fill="black"/>
<path d="M48.1142 47.3705C48.373 47.3705 48.5024 47.2668 48.5024 47.0852V46.8776H49.4601V47.163C49.4601 47.3965 49.3306 47.5781 49.0977 47.7078C48.8907 47.8375 48.606 47.9153 48.2954 47.9153H47.6224C47.1048 47.9153 46.7425 47.7597 46.5354 47.4743C46.4578 47.3705 46.4319 47.2668 46.4319 47.163V45.5286C46.4319 45.2951 46.5354 45.1136 46.7683 44.9838C47.0013 44.8541 47.286 44.7763 47.5966 44.7763H48.2695C48.5801 44.7763 48.8648 44.8541 49.0718 44.9838C49.3048 45.1136 49.4342 45.2951 49.4342 45.5286V46.4626H47.3895V47.0592C47.3895 47.2408 47.5189 47.3446 47.8036 47.3446H48.0883L48.1142 47.3705ZM47.8295 45.347C47.5448 45.347 47.4154 45.4508 47.4154 45.6324V45.9178H48.5024V45.6324C48.5024 45.4508 48.373 45.347 48.1142 45.347H47.8295Z" fill="black"/>
<path d="M51.1424 45.0357C51.2977 44.8801 51.5307 44.8022 51.8671 44.8022H52.0483V45.373H51.7895C51.5048 45.373 51.3236 45.4508 51.2201 45.6324C51.1683 45.6843 51.1683 45.7362 51.1683 45.814V47.9413H50.2107V44.8282H51.1683V45.0617L51.1424 45.0357Z" fill="black"/>
<path d="M54.6624 46.7739C54.6624 46.5923 54.5329 46.4885 54.2482 46.4885H53.653C53.1353 46.4885 52.773 46.3588 52.5659 46.0734C52.4883 45.9696 52.4624 45.8659 52.4624 45.7621V45.5546C52.4624 45.3211 52.5659 45.1395 52.7989 45.0098C53.0318 44.8801 53.3165 44.8022 53.6271 44.8022H54.4035C54.74 44.8022 54.9988 44.8801 55.2317 45.0098C55.4647 45.1395 55.5941 45.3211 55.5941 45.5546V45.6843H54.6365V45.6324C54.6365 45.4508 54.5071 45.347 54.2224 45.347H53.8341C53.5494 45.347 53.42 45.4508 53.42 45.6324C53.42 45.8659 53.5494 45.9437 53.8341 45.9437H54.4294C54.7659 45.9437 55.0247 46.0215 55.2576 46.1512C55.4906 46.281 55.5941 46.4626 55.5941 46.696V47.1889C55.5941 47.4224 55.4647 47.604 55.2317 47.7337C55.0247 47.8634 54.74 47.9413 54.4035 47.9413H53.6271C53.1094 47.9413 52.7471 47.7856 52.54 47.5002C52.4624 47.3965 52.4365 47.2927 52.4365 47.1889V46.8776H53.3941V47.0852C53.3941 47.2668 53.5236 47.3705 53.8083 47.3705H54.1965C54.4812 47.3705 54.6106 47.2668 54.6106 47.0852V46.7739H54.6624Z" fill="black"/>
<path d="M58.5963 47.9413V43.7646H59.5539V47.9413H58.5963Z" fill="black"/>
<path d="M62.4786 45.6324C62.4786 45.4508 62.3492 45.347 62.0645 45.347H61.8057C61.6763 45.347 61.5469 45.373 61.4175 45.4508C61.314 45.5286 61.2363 45.6065 61.2363 45.7102V47.8894H60.2787V44.7763H61.2363V44.9579C61.3916 44.8282 61.5987 44.7763 61.8834 44.7763H62.2198C62.5563 44.7763 62.8151 44.8541 63.048 44.9838C63.281 45.1136 63.3845 45.2951 63.3845 45.5286V47.9153H62.4269V45.6324H62.4786Z" fill="black"/>
<path d="M65.7138 47.3705C65.9726 47.3705 66.102 47.2668 66.102 47.0852V46.8776H67.0597V47.1889C67.0597 47.4224 66.9303 47.604 66.6973 47.7337C66.4903 47.8634 66.2056 47.9413 65.895 47.9413H65.2221C64.7044 47.9413 64.3421 47.7856 64.135 47.5002C64.0574 47.3965 64.0315 47.2927 64.0315 47.1889V45.5546C64.0315 45.3211 64.135 45.1395 64.368 45.0098C64.6009 44.8801 64.8856 44.8022 65.1962 44.8022H65.8691C66.1797 44.8022 66.4644 44.8801 66.6714 45.0098C66.9044 45.1395 67.0338 45.3211 67.0338 45.5546V45.8659H66.0762V45.6324C66.0762 45.4508 65.9467 45.347 65.6879 45.347H65.4032C65.1185 45.347 64.9891 45.4508 64.9891 45.6324V47.0852C64.9891 47.2668 65.1185 47.3705 65.4032 47.3705H65.6879H65.7138Z" fill="black"/>
<path d="M69.4408 47.2149C69.3373 47.2149 69.2597 47.1889 69.2597 47.1111C69.2338 47.1111 69.2079 47.1111 69.182 47.163C69.182 47.1889 69.1561 47.2408 69.1561 47.2927V47.63C69.1561 47.6818 69.1561 47.7078 69.2079 47.7597C69.2079 47.8115 69.2597 47.8115 69.2856 47.8115C69.2856 47.7337 69.3373 47.6818 69.4667 47.6818C69.5961 47.6818 69.5702 47.7337 69.5702 47.8115C69.5702 47.9413 69.4926 48.0191 69.3632 48.0191H68.1467C68.095 48.0191 68.0432 48.0191 67.9915 47.9672C67.9397 47.9153 67.9397 47.8894 67.9397 47.8375C67.9397 47.7856 67.9397 47.7597 67.9915 47.7078C68.0432 47.6559 68.0432 47.6559 68.095 47.6559C68.1985 47.6559 68.2244 47.7078 68.2244 47.7856C68.2503 47.7856 68.2762 47.7856 68.302 47.7337C68.3279 47.7078 68.3538 47.6559 68.3538 47.604V47.2668C68.3538 47.2149 68.3538 47.1889 68.3279 47.137C68.3279 47.1111 68.2762 47.0852 68.2503 47.0852C68.2503 47.1111 68.2503 47.137 68.1985 47.163C68.1726 47.163 68.1468 47.1889 68.1209 47.1889C68.0173 47.1889 67.9656 47.137 67.9656 47.0333C67.9656 46.9295 68.0432 46.8776 68.1726 46.8776H69.3891C69.5185 46.8776 69.5961 46.9295 69.5961 47.0333C69.5961 47.137 69.5702 47.1889 69.4926 47.1889L69.4408 47.2149Z" fill="black"/>
</svg>
