<svg width="250" height="99" viewBox="0 0 250 99" fill="none" xmlns="http://www.w3.org/2000/svg">
<path d="M0 89.8482H16.6201V16.6079H38.1883C38.1883 16.6079 63.2454 19.4714 63.8163 45.6877C64.3238 71.9677 39.3936 75.4674 39.3936 75.4674L39.5204 45.3695H22.9003V89.7846H37.7442C37.7442 89.7846 79.9924 89.0847 79.9924 44.7332C79.9924 0.381788 41.931 2.16348 41.931 2.16348H0V89.8482Z" fill="url(#paint0_linear_424_702)"/>
<path d="M203.819 0.38179C182.378 0.38179 164.298 15.0808 159.16 34.9976H186.755C193.415 27.2981 198.363 26.28 204.58 26.28C216.379 26.28 224.562 36.0793 224.562 46.7058C224.562 57.3324 215.999 65.9227 205.405 65.9227C194.811 65.9227 196.143 64.141 192.781 61.1503V90.23C196.333 91.1209 200.774 91.5663 204.58 91.5663C230.081 91.5663 250 72.2222 250 46.6422C250 21.0622 229.32 0.38179 203.819 0.38179Z" fill="url(#paint1_linear_424_702)"/>
<path d="M31.6542 38.5609C35.8934 38.5609 39.3299 35.1138 39.3299 30.8615C39.3299 26.6092 35.8934 23.162 31.6542 23.162C27.4151 23.162 23.9785 26.6092 23.9785 30.8615C23.9785 35.1138 27.4151 38.5609 31.6542 38.5609Z" fill="url(#paint2_linear_424_702)"/>
<path d="M185.725 39.7699V86.2849L168.216 98.9476L168.343 76.6128C159.906 86.4121 147.41 92.5844 133.517 92.5844C108.016 92.5844 87.3359 71.8404 87.3359 46.2604C87.3359 20.6804 107.953 1.44494e-09 133.454 1.44494e-09C149.017 0 154.831 3.94518 162.824 10.5629L149.693 33.8522C146.204 29.6525 140.939 27.0436 135.04 27.0436C124.446 27.0436 115.882 35.6339 115.882 46.2604C115.882 56.8869 124.446 65.4772 135.04 65.4772C145.633 65.4772 147.854 61.9139 151.216 56.5688H131.297L140.558 39.7063H185.725V39.7699Z" fill="url(#paint3_linear_424_702)"/>
<defs>
<linearGradient id="paint0_linear_424_702" x1="39.9962" y1="2.15363" x2="39.9962" y2="89.8482" gradientUnits="userSpaceOnUse">
<stop stop-color="#F79F24"/>
<stop offset="1" stop-color="#FE7220"/>
</linearGradient>
<linearGradient id="paint1_linear_424_702" x1="204.58" y1="0.38179" x2="204.58" y2="91.5663" gradientUnits="userSpaceOnUse">
<stop stop-color="#F79F24"/>
<stop offset="1" stop-color="#FE7220"/>
</linearGradient>
<linearGradient id="paint2_linear_424_702" x1="31.6542" y1="23.162" x2="31.6542" y2="38.5609" gradientUnits="userSpaceOnUse">
<stop stop-color="#F79F24"/>
<stop offset="1" stop-color="#FE7220"/>
</linearGradient>
<linearGradient id="paint3_linear_424_702" x1="136.53" y1="-7.17827e-10" x2="136.53" y2="98.9476" gradientUnits="userSpaceOnUse">
<stop stop-color="#F79F24"/>
<stop offset="1" stop-color="#FE7220"/>
</linearGradient>
</defs>
</svg>
